<?xml version="1.0" encoding="utf-8"?>
<!-- Generator: Adobe Illustrator 28.0.0, SVG Export Plug-In . SVG Version: 6.00 Build 0)  -->
<svg version="1.1" id="Laag_1" xmlns="http://www.w3.org/2000/svg" xmlns:xlink="http://www.w3.org/1999/xlink" x="0px" y="0px"
	 viewBox="0 0 220 52" style="enable-background:new 0 0 220 52;" xml:space="preserve">
<style type="text/css">
	.st0{fill:#FFFFFF;stroke:#1D1D1B;stroke-width:4;stroke-miterlimit:10;}
	.st1{fill:none;stroke:#1D1D1B;stroke-width:6;stroke-miterlimit:10;}
	.st2{fill:none;}
	.st3{fill:#1D1D1B;}
</style>
<polyline class="st0" points="36.39,35.9 26.24,11.7 4.9,11.7 "/>
<line class="st0" x1="26.24" y1="11.7" x2="26.24" y2="5.39"/>
<path class="st0" d="M20.64,4.6h17.85c0,0,5.51,7.1-3.37,7.1"/>
<ellipse class="st1" cx="36.39" cy="35.6" rx="10.8" ry="11.8"/>
<g>
	<rect x="63.8" y="19.89" class="st2" width="123.93" height="27.53"/>
	<path class="st3" d="M64.33,27.91l3.23-0.22c0.07,0.57,0.21,1.01,0.43,1.31c0.35,0.48,0.85,0.73,1.5,0.73
		c0.48,0,0.86-0.12,1.12-0.37s0.39-0.54,0.39-0.86c0-0.31-0.12-0.59-0.37-0.83c-0.25-0.25-0.83-0.48-1.74-0.69
		c-1.49-0.37-2.55-0.85-3.18-1.46c-0.64-0.6-0.96-1.38-0.96-2.31c0-0.62,0.16-1.2,0.49-1.75c0.33-0.55,0.82-0.98,1.47-1.29
		c0.66-0.31,1.56-0.47,2.7-0.47c1.4,0,2.47,0.28,3.21,0.85c0.74,0.57,1.17,1.48,1.31,2.72l-3.2,0.2c-0.08-0.54-0.26-0.93-0.53-1.18
		c-0.27-0.25-0.65-0.37-1.13-0.37c-0.39,0-0.69,0.09-0.89,0.27c-0.2,0.18-0.3,0.4-0.3,0.67c0,0.19,0.08,0.36,0.25,0.51
		c0.16,0.16,0.54,0.31,1.14,0.44c1.48,0.35,2.54,0.7,3.18,1.06s1.11,0.8,1.4,1.33c0.29,0.53,0.44,1.12,0.44,1.77
		c0,0.77-0.19,1.48-0.58,2.13s-0.93,1.14-1.63,1.47c-0.7,0.34-1.58,0.5-2.64,0.5c-1.87,0-3.16-0.39-3.88-1.18
		C64.83,30.12,64.42,29.12,64.33,27.91z"/>
	<path class="st3" d="M84.61,28.36H78.5c0.05,0.53,0.19,0.93,0.4,1.19c0.29,0.38,0.68,0.56,1.15,0.56c0.3,0,0.58-0.08,0.85-0.25
		c0.16-0.1,0.34-0.29,0.53-0.55l3,0.3c-0.46,0.87-1.01,1.5-1.66,1.88s-1.58,0.57-2.79,0.57c-1.05,0-1.88-0.16-2.48-0.49
		s-1.1-0.84-1.5-1.54c-0.4-0.71-0.6-1.54-0.6-2.49c0-1.36,0.4-2.46,1.19-3.29c0.8-0.84,1.89-1.26,3.3-1.26
		c1.14,0,2.04,0.19,2.69,0.56c0.66,0.38,1.16,0.92,1.5,1.64s0.52,1.64,0.52,2.79V28.36z M81.51,26.77c-0.06-0.64-0.22-1.1-0.48-1.38
		c-0.26-0.28-0.59-0.42-1.01-0.42c-0.48,0-0.87,0.21-1.16,0.63c-0.18,0.26-0.3,0.65-0.35,1.17H81.51z"/>
	<path class="st3" d="M91.93,28.48l2.9,0.36c-0.16,0.66-0.42,1.23-0.79,1.71s-0.83,0.86-1.4,1.12c-0.57,0.27-1.29,0.4-2.16,0.4
		c-0.84,0-1.54-0.09-2.11-0.26c-0.56-0.17-1.04-0.45-1.45-0.83c-0.4-0.38-0.72-0.83-0.95-1.35c-0.23-0.52-0.34-1.2-0.34-2.06
		c0-0.89,0.14-1.64,0.42-2.23c0.2-0.44,0.48-0.83,0.84-1.17c0.35-0.35,0.72-0.6,1.09-0.77c0.59-0.27,1.35-0.4,2.28-0.4
		c1.3,0,2.29,0.25,2.97,0.76c0.68,0.51,1.16,1.25,1.43,2.22L91.8,26.4c-0.09-0.37-0.25-0.65-0.49-0.84
		c-0.24-0.19-0.55-0.28-0.95-0.28c-0.5,0-0.91,0.2-1.22,0.59c-0.31,0.39-0.47,0.99-0.47,1.79c0,0.71,0.15,1.25,0.46,1.62
		c0.31,0.37,0.7,0.55,1.18,0.55c0.4,0,0.73-0.11,1.01-0.33C91.59,29.28,91.8,28.94,91.93,28.48z"/>
	<path class="st3" d="M95.85,27.56c0-1.32,0.41-2.42,1.23-3.27C97.9,23.43,99,23,100.39,23c1.59,0,2.79,0.5,3.61,1.51
		c0.65,0.81,0.98,1.81,0.98,3c0,1.33-0.41,2.43-1.22,3.28s-1.93,1.28-3.36,1.28c-1.28,0-2.31-0.35-3.1-1.06
		C96.34,30.13,95.85,28.98,95.85,27.56z M98.91,27.55c0,0.77,0.14,1.35,0.43,1.72c0.29,0.37,0.65,0.56,1.08,0.56
		c0.44,0,0.8-0.18,1.08-0.55s0.42-0.95,0.42-1.76c0-0.75-0.14-1.31-0.43-1.68c-0.28-0.37-0.64-0.55-1.06-0.55
		c-0.44,0-0.81,0.19-1.1,0.56C99.05,26.22,98.91,26.79,98.91,27.55z"/>
	<path class="st3" d="M106.45,23.19h2.84v1.41c0.42-0.58,0.85-0.99,1.29-1.24c0.43-0.25,0.96-0.37,1.59-0.37
		c0.84,0,1.5,0.27,1.98,0.82c0.48,0.55,0.71,1.39,0.71,2.54v5.52h-3.06V27.1c0-0.54-0.09-0.93-0.28-1.16
		c-0.19-0.23-0.45-0.34-0.78-0.34c-0.37,0-0.67,0.15-0.9,0.46c-0.23,0.31-0.34,0.85-0.34,1.64v4.17h-3.04V23.19z"/>
	<path class="st3" d="M125.03,19.89v11.98h-2.85v-1.28c-0.4,0.54-0.76,0.91-1.09,1.1c-0.44,0.25-0.93,0.38-1.47,0.38
		c-1.08,0-1.91-0.45-2.48-1.35s-0.86-1.99-0.86-3.28c0-1.44,0.32-2.54,0.95-3.3c0.63-0.76,1.43-1.14,2.41-1.14
		c0.47,0,0.9,0.09,1.29,0.26s0.73,0.44,1.03,0.78v-4.15H125.03z M121.98,27.51c0-0.68-0.13-1.19-0.4-1.52c-0.26-0.33-0.6-0.5-1-0.5
		c-0.35,0-0.65,0.16-0.89,0.48c-0.24,0.32-0.36,0.86-0.36,1.62c0,0.71,0.12,1.23,0.37,1.56c0.25,0.33,0.55,0.49,0.92,0.49
		c0.39,0,0.71-0.17,0.97-0.5S121.98,28.26,121.98,27.51z"/>
	<path class="st3" d="M131.61,27.91l3.22-0.22c0.07,0.57,0.21,1.01,0.43,1.31c0.35,0.48,0.85,0.73,1.5,0.73
		c0.48,0,0.86-0.12,1.12-0.37s0.39-0.54,0.39-0.86c0-0.31-0.12-0.59-0.37-0.83c-0.25-0.25-0.83-0.48-1.74-0.69
		c-1.49-0.37-2.55-0.85-3.18-1.46c-0.64-0.6-0.96-1.38-0.96-2.31c0-0.62,0.16-1.2,0.49-1.75c0.33-0.55,0.82-0.98,1.47-1.29
		c0.66-0.31,1.55-0.47,2.7-0.47c1.4,0,2.47,0.28,3.21,0.85c0.74,0.57,1.17,1.48,1.31,2.72l-3.2,0.2c-0.08-0.54-0.26-0.93-0.54-1.18
		c-0.27-0.25-0.65-0.37-1.13-0.37c-0.39,0-0.69,0.09-0.89,0.27c-0.2,0.18-0.3,0.4-0.3,0.67c0,0.19,0.08,0.36,0.25,0.51
		c0.16,0.16,0.54,0.31,1.14,0.44c1.48,0.35,2.54,0.7,3.18,1.06c0.64,0.36,1.11,0.8,1.4,1.33c0.29,0.53,0.44,1.12,0.44,1.77
		c0,0.77-0.2,1.48-0.58,2.13s-0.93,1.14-1.63,1.47c-0.7,0.34-1.58,0.5-2.64,0.5c-1.87,0-3.16-0.39-3.88-1.18
		C132.11,30.12,131.71,29.12,131.61,27.91z"/>
	<path class="st3" d="M143.08,35.18V23.19h2.85v1.28c0.39-0.54,0.76-0.9,1.08-1.1c0.44-0.26,0.94-0.38,1.47-0.38
		c1.06,0,1.88,0.44,2.47,1.33s0.87,1.99,0.87,3.29c0,1.44-0.32,2.55-0.95,3.31c-0.63,0.76-1.43,1.14-2.4,1.14
		c-0.47,0-0.9-0.09-1.28-0.26c-0.39-0.17-0.73-0.43-1.04-0.78v4.14H143.08z M146.13,27.56c0,0.69,0.13,1.2,0.4,1.53
		c0.26,0.33,0.6,0.5,1,0.5c0.35,0,0.65-0.16,0.89-0.48c0.24-0.32,0.36-0.86,0.36-1.62c0-0.7-0.12-1.22-0.37-1.55
		c-0.25-0.33-0.55-0.49-0.91-0.49c-0.39,0-0.71,0.17-0.97,0.5C146.26,26.27,146.13,26.81,146.13,27.56z"/>
	<path class="st3" d="M153.4,19.89h3.05v2.26h-3.05V19.89z M153.4,23.19h3.05v8.68h-3.05V23.19z"/>
	<path class="st3" d="M158.39,23.19h2.84v1.41c0.42-0.58,0.85-0.99,1.29-1.24c0.43-0.25,0.96-0.37,1.59-0.37
		c0.84,0,1.5,0.27,1.98,0.82c0.48,0.55,0.71,1.39,0.71,2.54v5.52h-3.06V27.1c0-0.54-0.09-0.93-0.28-1.16
		c-0.18-0.23-0.44-0.34-0.78-0.34c-0.37,0-0.67,0.15-0.9,0.46s-0.34,0.85-0.34,1.64v4.17h-3.05V23.19z"/>
</g>
<g>
</g>
<g>
</g>
<g>
</g>
<g>
</g>
<g>
</g>
<g>
</g>
<g>
</g>
<g>
</g>
<g>
</g>
<g>
</g>
<g>
</g>
</svg>
