<?xml version="1.0" encoding="utf-8"?>
<!-- Generator: Adobe Illustrator 28.0.0, SVG Export Plug-In . SVG Version: 6.00 Build 0)  -->
<svg version="1.1" id="Laag_1" xmlns="http://www.w3.org/2000/svg" xmlns:xlink="http://www.w3.org/1999/xlink" x="0px" y="0px"
	 viewBox="0 0 350 152" style="enable-background:new 0 0 350 152;" xml:space="preserve">
<style type="text/css">
	.st0{fill:#C9E4FF;}
	.st1{fill:#6691FF;stroke:#000000;stroke-miterlimit:10;}
	.st2{fill:#5AC63F;stroke:#000000;stroke-miterlimit:10;}
	.st3{fill:#5A993F;stroke:#000000;stroke-miterlimit:10;}
	.st4{fill:#72CE3F;stroke:#000000;stroke-miterlimit:10;}
	.st5{fill:#5A703F;stroke:#000000;stroke-miterlimit:10;}
	.st6{fill:none;}
</style>
<rect class="st0" width="350" height="152"/>
<g>
	<g>
		<circle class="st1" cx="183.59" cy="152" r="79.28"/>
		<path class="st2" d="M147.4,81.45c0,0,25.29,1.28,27.41,8.16s16.42,0,16.42,0s11.12-7.22,13.77-2.55s19.96-2.69,19.96-2.69
			S192.03,60.57,147.4,81.45z"/>
		<path class="st2" d="M247.07,104.51c0,0-33.6,1.52-47.37,9.99s-20.13-5-20.13-5s-2.12-8.02-12.18,1.4
			c-10.06,9.42-29.13,0.95-28.07,11.54s21.19,19.07,11.12,31.78s10.59,17.17,12.71,21.3c2.12,4.13,5.83,27.49,5.83,27.49
			s7.94,16.89,12.18,14.24c4.24-2.65,5.02-14.07,5.02-14.07s-0.06-16.15,7-16.66c7.05-0.52,9.7-15.88,9.7-15.88
			s27.01,16.45,28.6,11.14s15.6-1.93,15.6-1.93l3.58,14.43C250.66,194.28,279.62,152.25,247.07,104.51z"/>
	</g>
	<path class="st2" d="M278.07,118.69c0,0-26.1,0.88-30.41,30.04C247.66,148.73,273.51,149.79,278.07,118.69z"/>
	<path class="st3" d="M77.77,128.38c0,0,6.26,25.35,35.68,23.53C113.46,151.91,109.15,126.4,77.77,128.38z"/>
	<path class="st4" d="M86.66,114.29c0,0-2.9,25.95,25.33,34.43C111.99,148.72,116.77,123.3,86.66,114.29z"/>
	<path class="st5" d="M288.36,136.6c0,0-23.36-11.67-41.05,11.91C247.31,148.51,269.53,161.77,288.36,136.6z"/>
</g>
<g>
	<rect x="20.99" y="9.83" class="st6" width="325.19" height="44.35"/>
	<path d="M38.62,14.45c0-2.54,1.5-4.09,3.49-4.09c0.96,0,1.7,0.46,2.17,0.97l-0.55,0.65c-0.41-0.44-0.93-0.74-1.6-0.74
		c-1.49,0-2.48,1.22-2.48,3.18c0,1.98,0.94,3.22,2.44,3.22c0.75,0,1.32-0.33,1.82-0.88l0.55,0.63c-0.62,0.72-1.39,1.14-2.42,1.14
		C40.09,18.52,38.62,17,38.62,14.45z"/>
	<path d="M45.4,15.47c0-1.95,1.27-3.07,2.7-3.07c1.43,0,2.7,1.12,2.7,3.07c0,1.93-1.27,3.05-2.7,3.05
		C46.68,18.52,45.4,17.4,45.4,15.47z M49.79,15.47c0-1.34-0.68-2.25-1.68-2.25c-1,0-1.68,0.91-1.68,2.25s0.68,2.23,1.68,2.23
		C49.11,17.7,49.79,16.81,49.79,15.47z"/>
	<path d="M52.34,12.55h0.81l0.08,0.84h0.03c0.56-0.55,1.16-0.98,1.96-0.98c1.23,0,1.78,0.79,1.78,2.28v3.69h-0.99v-3.57
		c0-1.09-0.33-1.55-1.1-1.55c-0.6,0-1.01,0.3-1.59,0.9v4.22h-0.99V12.55z"/>
	<path d="M58.47,15.47c0-1.95,1.31-3.07,2.8-3.07c0.77,0,1.3,0.32,1.71,0.68l-0.5,0.65c-0.34-0.31-0.7-0.52-1.16-0.52
		c-1.06,0-1.83,0.91-1.83,2.25s0.73,2.23,1.8,2.23c0.53,0,1.01-0.26,1.37-0.58l0.43,0.66c-0.52,0.47-1.19,0.74-1.88,0.74
		C59.66,18.52,58.47,17.4,58.47,15.47z"/>
	<path d="M64.38,17.21V9.83h0.99v7.45c0,0.3,0.13,0.42,0.27,0.42c0.06,0,0.1,0,0.22-0.02l0.13,0.75c-0.14,0.05-0.31,0.09-0.57,0.09
		C64.68,18.52,64.38,18.05,64.38,17.21z"/>
	<path d="M67.36,16.24v-3.69h0.99v3.57c0,1.09,0.33,1.55,1.1,1.55c0.6,0,1.01-0.3,1.56-0.98v-4.13h0.99v5.83h-0.81l-0.08-0.91h-0.03
		c-0.54,0.64-1.12,1.06-1.92,1.06C67.91,18.52,67.36,17.73,67.36,16.24z"/>
	<path d="M73.55,15.47c0-1.89,1.19-3.07,2.52-3.07c0.68,0,1.12,0.25,1.63,0.68l-0.04-1V9.83h0.99v8.54h-0.81l-0.08-0.69h-0.03
		c-0.45,0.45-1.07,0.83-1.77,0.83C74.49,18.52,73.55,17.41,73.55,15.47z M77.66,16.89v-3.06c-0.5-0.44-0.95-0.61-1.42-0.61
		c-0.93,0-1.67,0.9-1.67,2.23c0,1.4,0.58,2.23,1.6,2.23C76.71,17.69,77.18,17.43,77.66,16.89z"/>
	<path d="M80.19,15.47c0-1.9,1.28-3.07,2.62-3.07c1.49,0,2.33,1.07,2.33,2.74c0,0.21-0.02,0.42-0.05,0.56h-3.93
		c0.07,1.23,0.83,2.04,1.94,2.04c0.56,0,1.02-0.18,1.45-0.47l0.35,0.65c-0.51,0.33-1.13,0.6-1.92,0.6
		C81.43,18.52,80.19,17.38,80.19,15.47z M84.27,14.99c0-1.17-0.53-1.8-1.44-1.8c-0.82,0-1.55,0.66-1.67,1.8H84.27z"/>
	<path d="M86.58,12.55h0.81l0.08,1.06h0.03c0.41-0.74,1-1.21,1.66-1.21c0.26,0,0.44,0.03,0.62,0.12l-0.18,0.87
		c-0.2-0.06-0.33-0.1-0.57-0.1c-0.49,0-1.08,0.35-1.47,1.34v3.74h-0.99V12.55z"/>
	<path d="M90.19,15.47c0-1.9,1.28-3.07,2.62-3.07c1.49,0,2.33,1.07,2.33,2.74c0,0.21-0.02,0.42-0.05,0.56h-3.93
		c0.07,1.23,0.83,2.04,1.94,2.04c0.56,0,1.02-0.18,1.45-0.47l0.35,0.65c-0.51,0.33-1.13,0.6-1.92,0.6
		C91.42,18.52,90.19,17.38,90.19,15.47z M94.26,14.99c0-1.17-0.53-1.8-1.44-1.8c-0.82,0-1.55,0.66-1.67,1.8H94.26z"/>
	<path d="M96.57,12.55h0.81l0.08,0.84h0.03c0.56-0.55,1.16-0.98,1.96-0.98c1.23,0,1.78,0.79,1.78,2.28v3.69h-0.99v-3.57
		c0-1.09-0.33-1.55-1.1-1.55c-0.6,0-1.01,0.3-1.59,0.9v4.22h-0.99V12.55z"/>
	<path d="M102.72,15.47c0-1.89,1.19-3.07,2.52-3.07c0.68,0,1.12,0.25,1.63,0.68l-0.04-1V9.83h0.99v8.54h-0.81l-0.08-0.69h-0.03
		c-0.45,0.45-1.07,0.83-1.77,0.83C103.67,18.52,102.72,17.41,102.72,15.47z M106.84,16.89v-3.06c-0.5-0.44-0.95-0.61-1.42-0.61
		c-0.93,0-1.67,0.9-1.67,2.23c0,1.4,0.58,2.23,1.6,2.23C105.88,17.69,106.35,17.43,106.84,16.89z"/>
	<path d="M109.38,19.83c0.68-0.3,1.08-0.83,1.08-1.49l-0.11-0.89l0.48,0.72c-0.13,0.16-0.31,0.21-0.5,0.21
		c-0.38,0-0.71-0.24-0.71-0.69c0-0.43,0.34-0.69,0.73-0.69c0.52,0,0.84,0.44,0.84,1.16c0,1.04-0.6,1.84-1.57,2.24L109.38,19.83z"/>
	<path d="M114.77,15.47c0-1.89,1.19-3.07,2.52-3.07c0.68,0,1.12,0.25,1.63,0.68l-0.04-1V9.83h0.99v8.54h-0.81l-0.08-0.69h-0.03
		c-0.45,0.45-1.07,0.83-1.77,0.83C115.71,18.52,114.77,17.41,114.77,15.47z M118.88,16.89v-3.06c-0.5-0.44-0.95-0.61-1.42-0.61
		c-0.93,0-1.67,0.9-1.67,2.23c0,1.4,0.58,2.23,1.6,2.23C117.93,17.69,118.39,17.43,118.88,16.89z"/>
	<path d="M121.41,15.47c0-1.9,1.28-3.07,2.62-3.07c1.49,0,2.33,1.07,2.33,2.74c0,0.21-0.02,0.42-0.05,0.56h-3.93
		c0.07,1.23,0.83,2.04,1.94,2.04c0.56,0,1.02-0.18,1.45-0.47l0.35,0.65c-0.51,0.33-1.13,0.6-1.92,0.6
		C122.65,18.52,121.41,17.38,121.41,15.47z M125.49,14.99c0-1.17-0.53-1.8-1.44-1.8c-0.82,0-1.55,0.66-1.67,1.8H125.49z"/>
	<path d="M127.8,12.55h0.81l0.08,0.84h0.03c0.56-0.55,1.16-0.98,1.96-0.98c1.23,0,1.78,0.79,1.78,2.28v3.69h-0.99v-3.57
		c0-1.09-0.33-1.55-1.1-1.55c-0.6,0-1.01,0.3-1.59,0.9v4.22h-0.99V12.55z"/>
	<path d="M134.36,9.83h0.97v5.79h0.03l2.49-3.07h1.09l-1.95,2.34l2.21,3.49h-1.08l-1.7-2.8l-1.09,1.27v1.53h-0.97V9.83z"/>
	<path d="M142.27,15.47c0-1.9,1.28-3.07,2.62-3.07c1.49,0,2.33,1.07,2.33,2.74c0,0.21-0.02,0.42-0.05,0.56h-3.93
		c0.07,1.23,0.83,2.04,1.94,2.04c0.56,0,1.02-0.18,1.45-0.47l0.35,0.65c-0.51,0.33-1.13,0.6-1.92,0.6
		C143.5,18.52,142.27,17.38,142.27,15.47z M146.34,14.99c0-1.17-0.53-1.8-1.44-1.8c-0.82,0-1.55,0.66-1.67,1.8H146.34z"/>
	<path d="M148.22,15.47c0-1.9,1.28-3.07,2.62-3.07c1.49,0,2.33,1.07,2.33,2.74c0,0.21-0.02,0.42-0.05,0.56h-3.93
		c0.07,1.23,0.83,2.04,1.94,2.04c0.56,0,1.02-0.18,1.45-0.47l0.35,0.65c-0.51,0.33-1.13,0.6-1.92,0.6
		C149.46,18.52,148.22,17.38,148.22,15.47z M152.29,14.99c0-1.17-0.53-1.8-1.44-1.8c-0.82,0-1.55,0.66-1.67,1.8H152.29z"/>
	<path d="M154.6,12.55h0.81l0.08,1.06h0.03c0.41-0.74,1-1.21,1.66-1.21c0.26,0,0.44,0.03,0.62,0.12l-0.18,0.87
		c-0.2-0.06-0.33-0.1-0.57-0.1c-0.49,0-1.08,0.35-1.47,1.34v3.74h-0.99V12.55z"/>
	<path d="M158.07,17.71l0.49-0.65c0.51,0.41,1.02,0.69,1.72,0.69c0.77,0,1.15-0.41,1.15-0.91c0-0.6-0.69-0.87-1.33-1.1
		c-0.82-0.3-1.74-0.7-1.74-1.68c0-0.93,0.75-1.65,2.01-1.65c0.73,0,1.36,0.3,1.81,0.65l-0.47,0.63c-0.4-0.3-0.81-0.52-1.33-0.52
		c-0.73,0-1.07,0.39-1.07,0.84c0,0.55,0.63,0.77,1.29,1.01c0.84,0.32,1.78,0.66,1.78,1.77c0,0.95-0.75,1.73-2.13,1.73
		C159.42,18.52,158.62,18.17,158.07,17.71z"/>
	<path d="M163.68,16.57v-3.22h-0.87V12.6l0.91-0.06l0.12-1.63h0.82v1.63h1.58v0.8h-1.58v3.24c0,0.71,0.23,1.13,0.9,1.13
		c0.21,0,0.48-0.08,0.66-0.16l0.19,0.74c-0.33,0.11-0.72,0.22-1.08,0.22C164.1,18.52,163.68,17.73,163.68,16.57z"/>
	<path d="M169.53,15.47c0-1.9,1.28-3.07,2.62-3.07c1.49,0,2.33,1.07,2.33,2.74c0,0.21-0.02,0.42-0.05,0.56h-3.93
		c0.07,1.23,0.83,2.04,1.94,2.04c0.56,0,1.02-0.18,1.45-0.47l0.35,0.65c-0.51,0.33-1.13,0.6-1.92,0.6
		C170.77,18.52,169.53,17.38,169.53,15.47z M173.61,14.99c0-1.17-0.53-1.8-1.44-1.8c-0.82,0-1.55,0.66-1.67,1.8H173.61z"/>
	<path d="M175.14,12.55h1.02l1.1,3.31c0.17,0.57,0.36,1.16,0.54,1.72h0.05c0.17-0.56,0.36-1.15,0.54-1.72l1.1-3.31h0.97l-2.06,5.83
		h-1.15L175.14,12.55z"/>
	<path d="M181.1,15.47c0-1.9,1.28-3.07,2.62-3.07c1.49,0,2.33,1.07,2.33,2.74c0,0.21-0.02,0.42-0.05,0.56h-3.93
		c0.07,1.23,0.83,2.04,1.94,2.04c0.56,0,1.02-0.18,1.45-0.47l0.35,0.65c-0.51,0.33-1.13,0.6-1.92,0.6
		C182.34,18.52,181.1,17.38,181.1,15.47z M185.17,14.99c0-1.17-0.53-1.8-1.44-1.8c-0.82,0-1.55,0.66-1.67,1.8H185.17z"/>
	<path d="M187.48,12.55h0.82l0.08,0.84h0.03c0.56-0.55,1.16-0.98,1.96-0.98c1.23,0,1.78,0.79,1.78,2.28v3.69h-0.99v-3.57
		c0-1.09-0.33-1.55-1.1-1.55c-0.6,0-1.01,0.3-1.59,0.9v4.22h-0.99V12.55z"/>
	<path d="M196.45,12.55h0.82l0.08,0.84h0.03c0.56-0.55,1.16-0.98,1.96-0.98c1.23,0,1.78,0.79,1.78,2.28v3.69h-0.99v-3.57
		c0-1.09-0.33-1.55-1.1-1.55c-0.6,0-1.01,0.3-1.59,0.9v4.22h-0.99V12.55z"/>
	<path d="M202.65,16.86c0-1.27,1.1-1.9,3.58-2.18c0-0.75-0.25-1.47-1.2-1.47c-0.67,0-1.28,0.32-1.74,0.62l-0.39-0.68
		c0.54-0.35,1.35-0.76,2.29-0.76c1.42,0,2.02,0.95,2.02,2.4v3.58h-0.81l-0.08-0.7h-0.03c-0.56,0.46-1.21,0.84-1.93,0.84
		C203.38,18.52,202.65,17.91,202.65,16.86z M206.23,16.95v-1.62c-1.95,0.23-2.61,0.71-2.61,1.46c0,0.66,0.45,0.93,1.02,0.93
		C205.2,17.73,205.67,17.45,206.23,16.95z"/>
	<path d="M211.1,16.86c0-1.27,1.1-1.9,3.58-2.18c0-0.75-0.25-1.47-1.2-1.47c-0.67,0-1.28,0.32-1.74,0.62l-0.39-0.68
		c0.54-0.35,1.35-0.76,2.29-0.76c1.42,0,2.02,0.95,2.02,2.4v3.58h-0.81l-0.08-0.7h-0.03c-0.56,0.46-1.21,0.84-1.93,0.84
		C211.83,18.52,211.1,17.91,211.1,16.86z M214.68,16.95v-1.62c-1.95,0.23-2.61,0.71-2.61,1.46c0,0.66,0.45,0.93,1.02,0.93
		C213.65,17.73,214.12,17.45,214.68,16.95z"/>
	<path d="M217.51,17.21V9.83h0.99v7.45c0,0.3,0.13,0.42,0.28,0.42c0.06,0,0.11,0,0.22-0.02l0.13,0.75
		c-0.14,0.05-0.31,0.09-0.57,0.09C217.81,18.52,217.51,18.05,217.51,17.21z"/>
	<path d="M219.92,17.71l0.49-0.65c0.51,0.41,1.02,0.69,1.72,0.69c0.77,0,1.15-0.41,1.15-0.91c0-0.6-0.69-0.87-1.33-1.1
		c-0.82-0.3-1.74-0.7-1.74-1.68c0-0.93,0.75-1.65,2.01-1.65c0.73,0,1.36,0.3,1.81,0.65l-0.47,0.63c-0.4-0.3-0.81-0.52-1.33-0.52
		c-0.73,0-1.07,0.39-1.07,0.84c0,0.55,0.63,0.77,1.29,1.01c0.84,0.32,1.78,0.66,1.78,1.77c0,0.95-0.75,1.73-2.13,1.73
		C221.27,18.52,220.47,18.17,219.92,17.71z"/>
	<path d="M226.54,20.83l0.19-0.75c0.15,0.05,0.35,0.1,0.55,0.1c0.58,0,0.72-0.44,0.72-1.15v-6.48h0.99v6.49
		c0,1.19-0.44,1.95-1.6,1.95C227.04,20.98,226.74,20.91,226.54,20.83z M227.82,10.71c0-0.39,0.3-0.64,0.68-0.64s0.68,0.25,0.68,0.64
		c0,0.37-0.3,0.64-0.68,0.64S227.82,11.08,227.82,10.71z"/>
	<path d="M230.53,15.47c0-1.9,1.28-3.07,2.62-3.07c1.49,0,2.33,1.07,2.33,2.74c0,0.21-0.02,0.42-0.05,0.56h-3.93
		c0.07,1.23,0.83,2.04,1.94,2.04c0.56,0,1.02-0.18,1.45-0.47l0.35,0.65c-0.51,0.33-1.13,0.6-1.92,0.6
		C231.76,18.52,230.53,17.38,230.53,15.47z M234.6,14.99c0-1.17-0.53-1.8-1.44-1.8c-0.82,0-1.55,0.66-1.67,1.8H234.6z"/>
	<path d="M238.7,17.85l3.07-4.5h-2.73v-0.8h3.98v0.53l-3.07,4.5h3.17v0.8h-4.42V17.85z"/>
	<path d="M243.86,15.47c0-1.95,1.27-3.07,2.7-3.07s2.7,1.12,2.7,3.07c0,1.93-1.27,3.05-2.7,3.05S243.86,17.4,243.86,15.47z
		 M248.24,15.47c0-1.34-0.68-2.25-1.68-2.25s-1.68,0.91-1.68,2.25s0.68,2.23,1.68,2.23S248.24,16.81,248.24,15.47z"/>
	<path d="M250.8,12.55h0.82l0.08,0.85h0.03c0.51-0.55,1.12-0.99,1.81-0.99c0.89,0,1.37,0.43,1.61,1.11
		c0.61-0.66,1.21-1.11,1.92-1.11c1.2,0,1.77,0.79,1.77,2.28v3.69h-0.99v-3.57c0-1.09-0.34-1.55-1.08-1.55c-0.45,0-0.92,0.3-1.46,0.9
		v4.22h-0.99v-3.57c0-1.09-0.34-1.55-1.08-1.55c-0.44,0-0.92,0.3-1.46,0.9v4.22h-0.99V12.55z"/>
	<path d="M260.38,16.86c0-1.27,1.1-1.9,3.58-2.18c0-0.75-0.25-1.47-1.2-1.47c-0.67,0-1.28,0.32-1.74,0.62l-0.39-0.68
		c0.54-0.35,1.35-0.76,2.29-0.76c1.42,0,2.02,0.95,2.02,2.4v3.58h-0.81l-0.08-0.7h-0.03c-0.56,0.46-1.21,0.84-1.93,0.84
		C261.12,18.52,260.38,17.91,260.38,16.86z M263.96,16.95v-1.62c-1.95,0.23-2.61,0.71-2.61,1.46c0,0.66,0.45,0.93,1.02,0.93
		C262.93,17.73,263.4,17.45,263.96,16.95z"/>
	<path d="M266.43,16.86c0-1.27,1.1-1.9,3.58-2.18c0-0.75-0.25-1.47-1.2-1.47c-0.67,0-1.28,0.32-1.74,0.62l-0.39-0.68
		c0.54-0.35,1.35-0.76,2.29-0.76c1.42,0,2.02,0.95,2.02,2.4v3.58h-0.81l-0.08-0.7h-0.03c-0.56,0.46-1.21,0.84-1.93,0.84
		C267.16,18.52,266.43,17.91,266.43,16.86z M270.01,16.95v-1.62c-1.95,0.23-2.61,0.71-2.61,1.46c0,0.66,0.45,0.93,1.02,0.93
		C268.98,17.73,269.45,17.45,270.01,16.95z"/>
	<path d="M272.84,12.55h0.82l0.08,1.06h0.03c0.41-0.74,1-1.21,1.66-1.21c0.26,0,0.44,0.03,0.62,0.12l-0.18,0.87
		c-0.2-0.06-0.33-0.1-0.57-0.1c-0.49,0-1.08,0.35-1.48,1.34v3.74h-0.99V12.55z"/>
	<path d="M279.22,10.71c0-0.39,0.3-0.64,0.68-0.64s0.68,0.25,0.68,0.64c0,0.37-0.3,0.64-0.68,0.64S279.22,11.08,279.22,10.71z
		 M279.4,12.55h0.99v5.83h-0.99V12.55z"/>
	<path d="M281.92,15.47c0-1.9,1.28-3.07,2.62-3.07c1.49,0,2.33,1.07,2.33,2.74c0,0.21-0.02,0.42-0.05,0.56h-3.93
		c0.07,1.23,0.83,2.04,1.94,2.04c0.56,0,1.02-0.18,1.45-0.47l0.35,0.65c-0.51,0.33-1.13,0.6-1.92,0.6
		C283.16,18.52,281.92,17.38,281.92,15.47z M286,14.99c0-1.17-0.53-1.8-1.44-1.8c-0.82,0-1.55,0.66-1.67,1.8H286z"/>
	<path d="M288.36,16.57v-3.22h-0.87V12.6l0.91-0.06l0.12-1.63h0.82v1.63h1.58v0.8h-1.58v3.24c0,0.71,0.23,1.13,0.9,1.13
		c0.21,0,0.47-0.08,0.66-0.16l0.19,0.74c-0.33,0.11-0.72,0.22-1.08,0.22C288.78,18.52,288.36,17.73,288.36,16.57z"/>
	<path d="M291.48,17.71l0.49-0.65c0.51,0.41,1.02,0.69,1.72,0.69c0.77,0,1.15-0.41,1.15-0.91c0-0.6-0.69-0.87-1.33-1.1
		c-0.82-0.3-1.74-0.7-1.74-1.68c0-0.93,0.75-1.65,2.01-1.65c0.73,0,1.36,0.3,1.81,0.65l-0.47,0.63c-0.4-0.3-0.81-0.52-1.33-0.52
		c-0.73,0-1.07,0.39-1.07,0.84c0,0.55,0.63,0.77,1.29,1.01c0.84,0.32,1.78,0.66,1.78,1.77c0,0.95-0.75,1.73-2.13,1.73
		C292.82,18.52,292.03,18.17,291.48,17.71z"/>
	<path d="M299.55,12.55h0.82l0.08,0.84h0.03c0.56-0.55,1.16-0.98,1.96-0.98c1.23,0,1.78,0.79,1.78,2.28v3.69h-0.99v-3.57
		c0-1.09-0.33-1.55-1.1-1.55c-0.6,0-1.01,0.3-1.59,0.9v4.22h-0.99V12.55z"/>
	<path d="M305.94,10.71c0-0.39,0.3-0.64,0.68-0.64s0.68,0.25,0.68,0.64c0,0.37-0.3,0.64-0.68,0.64S305.94,11.08,305.94,10.71z
		 M306.12,12.55h0.99v5.83h-0.99V12.55z"/>
	<path d="M308.64,15.47c0-1.9,1.28-3.07,2.62-3.07c1.49,0,2.33,1.07,2.33,2.74c0,0.21-0.02,0.42-0.05,0.56h-3.93
		c0.07,1.23,0.83,2.04,1.94,2.04c0.56,0,1.02-0.18,1.45-0.47l0.35,0.65c-0.51,0.33-1.13,0.6-1.92,0.6
		C309.87,18.52,308.64,17.38,308.64,15.47z M312.71,14.99c0-1.17-0.53-1.8-1.44-1.8c-0.82,0-1.55,0.66-1.67,1.8H312.71z"/>
	<path d="M314.94,16.24v-3.69h0.99v3.57c0,1.09,0.33,1.55,1.1,1.55c0.6,0,1.01-0.3,1.56-0.98v-4.13h0.99v5.83h-0.81l-0.08-0.91
		h-0.03c-0.54,0.64-1.12,1.06-1.92,1.06C315.49,18.52,314.94,17.73,314.94,16.24z"/>
	<path d="M320.85,12.55h1.01l0.87,3.37c0.13,0.55,0.23,1.08,0.35,1.63h0.05c0.13-0.55,0.25-1.08,0.4-1.63l0.9-3.37h0.96l0.91,3.37
		c0.14,0.55,0.27,1.08,0.41,1.63h0.05c0.13-0.55,0.24-1.07,0.36-1.63l0.85-3.37h0.94l-1.56,5.83h-1.2l-0.84-3.13
		c-0.14-0.55-0.25-1.09-0.39-1.68h-0.05c-0.13,0.59-0.24,1.14-0.4,1.69l-0.82,3.12h-1.15L320.85,12.55z"/>
	<path d="M25.43,24.23h0.97v5.79h0.03l2.49-3.07h1.09l-1.95,2.34l2.21,3.49h-1.08l-1.7-2.8l-1.09,1.27v1.53h-0.97V24.23z"/>
	<path d="M30.72,29.87c0-1.95,1.27-3.07,2.7-3.07s2.7,1.12,2.7,3.07c0,1.93-1.27,3.05-2.7,3.05S30.72,31.8,30.72,29.87z M35.1,29.87
		c0-1.34-0.68-2.25-1.68-2.25c-1,0-1.68,0.91-1.68,2.25s0.68,2.23,1.68,2.23C34.42,32.1,35.1,31.21,35.1,29.87z"/>
	<path d="M37.22,29.87c0-1.95,1.27-3.07,2.7-3.07s2.7,1.12,2.7,3.07c0,1.93-1.27,3.05-2.7,3.05S37.22,31.8,37.22,29.87z M41.6,29.87
		c0-1.34-0.68-2.25-1.68-2.25c-1,0-1.68,0.91-1.68,2.25s0.68,2.23,1.68,2.23C40.92,32.1,41.6,31.21,41.6,29.87z"/>
	<path d="M44.16,26.95h0.81l0.08,0.67h0.03c0.53-0.44,1.18-0.82,1.86-0.82c1.51,0,2.31,1.17,2.31,2.97c0,1.99-1.19,3.15-2.52,3.15
		c-0.53,0-1.08-0.25-1.62-0.68l0.03,1.02v1.97h-0.99V26.95z M48.24,29.78c0-1.29-0.44-2.15-1.54-2.15c-0.49,0-0.99,0.27-1.56,0.8
		v3.06c0.53,0.44,1.03,0.61,1.42,0.61C47.53,32.09,48.24,31.22,48.24,29.78z"/>
	<path d="M50.79,30.97v-3.22h-0.87V27l0.91-0.06l0.12-1.63h0.82v1.63h1.58v0.8h-1.58v3.24c0,0.71,0.23,1.13,0.9,1.13
		c0.21,0,0.48-0.08,0.66-0.16l0.19,0.74c-0.33,0.11-0.72,0.22-1.08,0.22C51.21,32.92,50.79,32.13,50.79,30.97z"/>
	<path d="M54.55,32.17c0-0.45,0.32-0.76,0.71-0.76c0.39,0,0.71,0.31,0.71,0.76c0,0.44-0.32,0.75-0.71,0.75
		C54.87,32.92,54.55,32.61,54.55,32.17z"/>
	<path d="M59.69,32.18l4.15-6.43h-3.77v-0.85h5.01v0.6l-4.15,6.43h4.18v0.85h-5.42V32.18z"/>
	<path d="M65.92,29.87c0-1.95,1.27-3.07,2.7-3.07s2.7,1.12,2.7,3.07c0,1.93-1.27,3.05-2.7,3.05S65.92,31.8,65.92,29.87z
		 M70.31,29.87c0-1.34-0.68-2.25-1.68-2.25c-1,0-1.68,0.91-1.68,2.25s0.68,2.23,1.68,2.23C69.63,32.1,70.31,31.21,70.31,29.87z"/>
	<path d="M75.21,24.23h0.97v5.79h0.03l2.49-3.07h1.09l-1.95,2.34l2.21,3.49h-1.08l-1.7-2.8l-1.09,1.27v1.53h-0.97V24.23z"/>
	<path d="M80.91,30.64v-3.69h0.99v3.57c0,1.09,0.33,1.55,1.1,1.55c0.6,0,1.01-0.3,1.56-0.98v-4.13h0.99v5.83h-0.81l-0.08-0.91h-0.03
		c-0.54,0.64-1.12,1.06-1.92,1.06C81.46,32.92,80.91,32.13,80.91,30.64z"/>
	<path d="M87.51,26.95h0.81l0.08,0.84h0.03C89,27.24,89.6,26.8,90.4,26.8c1.23,0,1.78,0.79,1.78,2.28v3.69h-0.99v-3.57
		c0-1.09-0.33-1.55-1.1-1.55c-0.6,0-1.01,0.3-1.59,0.9v4.22h-0.99V26.95z"/>
	<path d="M94.08,26.95h0.81l0.08,0.84h0.03c0.56-0.55,1.16-0.98,1.96-0.98c1.23,0,1.78,0.79,1.78,2.28v3.69h-0.99v-3.57
		c0-1.09-0.33-1.55-1.1-1.55c-0.6,0-1.01,0.3-1.59,0.9v4.22h-0.99V26.95z"/>
	<path d="M100.21,29.87c0-1.9,1.28-3.07,2.62-3.07c1.49,0,2.33,1.07,2.33,2.74c0,0.21-0.02,0.42-0.05,0.56h-3.93
		c0.07,1.23,0.83,2.04,1.94,2.04c0.56,0,1.02-0.18,1.45-0.47l0.35,0.65c-0.51,0.33-1.13,0.6-1.92,0.6
		C101.44,32.92,100.21,31.78,100.21,29.87z M104.28,29.39c0-1.17-0.53-1.8-1.44-1.8c-0.82,0-1.55,0.66-1.67,1.8H104.28z"/>
	<path d="M106.59,26.95h0.81l0.08,0.84h0.03c0.56-0.55,1.16-0.98,1.96-0.98c1.23,0,1.78,0.79,1.78,2.28v3.69h-0.99v-3.57
		c0-1.09-0.33-1.55-1.1-1.55c-0.6,0-1.01,0.3-1.59,0.9v4.22h-0.99V26.95z"/>
	<path d="M114.86,26.95h1.01l0.87,3.37c0.13,0.55,0.23,1.08,0.35,1.63h0.05c0.13-0.55,0.25-1.08,0.4-1.63l0.9-3.37h0.96l0.91,3.37
		c0.14,0.55,0.27,1.08,0.41,1.63h0.05c0.13-0.55,0.23-1.07,0.36-1.63l0.85-3.37h0.94l-1.56,5.83h-1.2l-0.84-3.13
		c-0.14-0.55-0.25-1.09-0.39-1.68h-0.05c-0.13,0.59-0.24,1.14-0.4,1.69l-0.82,3.12h-1.15L114.86,26.95z"/>
	<path d="M123.99,25.11c0-0.39,0.3-0.64,0.68-0.64c0.38,0,0.68,0.25,0.68,0.64c0,0.37-0.3,0.64-0.68,0.64
		C124.29,25.75,123.99,25.48,123.99,25.11z M124.17,26.95h0.99v5.83h-0.99V26.95z"/>
	<path d="M125.67,35.23l0.19-0.75c0.15,0.05,0.35,0.1,0.55,0.1c0.58,0,0.72-0.44,0.72-1.15v-6.48h0.99v6.49
		c0,1.19-0.44,1.95-1.6,1.95C126.17,35.38,125.87,35.31,125.67,35.23z M126.95,25.11c0-0.39,0.3-0.64,0.68-0.64
		c0.38,0,0.68,0.25,0.68,0.64c0,0.37-0.3,0.64-0.68,0.64C127.25,25.75,126.95,25.48,126.95,25.11z"/>
	<path d="M132.05,29.87c0-1.9,1.28-3.07,2.62-3.07c1.49,0,2.33,1.07,2.33,2.74c0,0.21-0.02,0.42-0.05,0.56h-3.93
		c0.07,1.23,0.83,2.04,1.94,2.04c0.56,0,1.02-0.18,1.45-0.47l0.35,0.65c-0.51,0.33-1.13,0.6-1.92,0.6
		C133.29,32.92,132.05,31.78,132.05,29.87z M136.13,29.39c0-1.17-0.53-1.8-1.44-1.8c-0.82,0-1.55,0.66-1.67,1.8H136.13z"/>
	<path d="M138.44,26.95h0.81l0.08,1.06h0.03c0.41-0.74,1-1.21,1.66-1.21c0.26,0,0.44,0.03,0.62,0.12l-0.18,0.87
		c-0.2-0.06-0.33-0.1-0.57-0.1c-0.49,0-1.08,0.35-1.47,1.34v3.74h-0.99V26.95z"/>
	<path d="M144.64,31.26c0-1.27,1.1-1.9,3.58-2.18c0-0.75-0.25-1.47-1.2-1.47c-0.67,0-1.28,0.32-1.74,0.62l-0.39-0.68
		c0.54-0.35,1.35-0.76,2.29-0.76c1.42,0,2.02,0.95,2.02,2.4v3.58h-0.81l-0.08-0.7h-0.03c-0.56,0.46-1.2,0.84-1.93,0.84
		C145.37,32.92,144.64,32.31,144.64,31.26z M148.22,31.35v-1.62c-1.95,0.23-2.61,0.71-2.61,1.46c0,0.66,0.45,0.93,1.02,0.93
		C147.19,32.13,147.66,31.85,148.22,31.35z"/>
	<path d="M151.05,31.61v-7.37h0.99v7.45c0,0.3,0.13,0.42,0.27,0.42c0.06,0,0.1,0,0.22-0.02l0.13,0.75
		c-0.14,0.05-0.31,0.09-0.57,0.09C151.35,32.92,151.05,32.45,151.05,31.61z"/>
	<path d="M154.11,31.61v-7.37h0.99v7.45c0,0.3,0.13,0.42,0.27,0.42c0.06,0,0.1,0,0.22-0.02l0.13,0.75
		c-0.14,0.05-0.31,0.09-0.57,0.09C154.41,32.92,154.11,32.45,154.11,31.61z"/>
	<path d="M156.74,29.87c0-1.9,1.28-3.07,2.62-3.07c1.49,0,2.33,1.07,2.33,2.74c0,0.21-0.02,0.42-0.05,0.56h-3.93
		c0.07,1.23,0.83,2.04,1.94,2.04c0.56,0,1.02-0.18,1.45-0.47l0.35,0.65c-0.51,0.33-1.13,0.6-1.92,0.6
		C157.97,32.92,156.74,31.78,156.74,29.87z M160.81,29.39c0-1.17-0.53-1.8-1.44-1.8c-0.82,0-1.55,0.66-1.67,1.8H160.81z"/>
	<path d="M163.12,26.95h0.81l0.08,0.85h0.03c0.51-0.55,1.12-0.99,1.81-0.99c0.89,0,1.37,0.43,1.61,1.11
		c0.61-0.66,1.21-1.11,1.92-1.11c1.2,0,1.77,0.79,1.77,2.28v3.69h-0.99v-3.57c0-1.09-0.34-1.55-1.08-1.55c-0.45,0-0.92,0.3-1.46,0.9
		v4.22h-0.99v-3.57c0-1.09-0.34-1.55-1.08-1.55c-0.44,0-0.92,0.3-1.46,0.9v4.22h-0.99V26.95z"/>
	<path d="M172.71,31.26c0-1.27,1.1-1.9,3.58-2.18c0-0.75-0.25-1.47-1.2-1.47c-0.67,0-1.28,0.32-1.74,0.62l-0.39-0.68
		c0.54-0.35,1.35-0.76,2.29-0.76c1.42,0,2.02,0.95,2.02,2.4v3.58h-0.81l-0.08-0.7h-0.03c-0.56,0.46-1.2,0.84-1.93,0.84
		C173.44,32.92,172.71,32.31,172.71,31.26z M176.29,31.35v-1.62c-1.95,0.23-2.61,0.71-2.61,1.46c0,0.66,0.45,0.93,1.02,0.93
		C175.26,32.13,175.72,31.85,176.29,31.35z"/>
	<path d="M178.76,31.26c0-1.27,1.1-1.9,3.58-2.18c0-0.75-0.25-1.47-1.2-1.47c-0.67,0-1.28,0.32-1.74,0.62l-0.39-0.68
		c0.54-0.35,1.35-0.76,2.29-0.76c1.42,0,2.03,0.95,2.03,2.4v3.58h-0.82l-0.08-0.7h-0.03c-0.56,0.46-1.2,0.84-1.93,0.84
		C179.49,32.92,178.76,32.31,178.76,31.26z M182.34,31.35v-1.62c-1.95,0.23-2.61,0.71-2.61,1.46c0,0.66,0.45,0.93,1.02,0.93
		C181.31,32.13,181.77,31.85,182.34,31.35z"/>
	<path d="M185.17,31.61v-7.37h0.99v7.45c0,0.3,0.13,0.42,0.28,0.42c0.06,0,0.11,0,0.22-0.02l0.13,0.75
		c-0.14,0.05-0.31,0.09-0.57,0.09C185.47,32.92,185.17,32.45,185.17,31.61z"/>
	<path d="M190.26,31.26c0-1.27,1.1-1.9,3.58-2.18c0-0.75-0.25-1.47-1.2-1.47c-0.67,0-1.28,0.32-1.74,0.62l-0.39-0.68
		c0.54-0.35,1.35-0.76,2.29-0.76c1.42,0,2.02,0.95,2.02,2.4v3.58h-0.81l-0.08-0.7h-0.03c-0.56,0.46-1.21,0.84-1.93,0.84
		C191,32.92,190.26,32.31,190.26,31.26z M193.85,31.35v-1.62c-1.95,0.23-2.61,0.71-2.61,1.46c0,0.66,0.45,0.93,1.02,0.93
		C192.82,32.13,193.28,31.85,193.85,31.35z"/>
	<path d="M196.67,31.61v-7.37h0.99v7.45c0,0.3,0.13,0.42,0.28,0.42c0.06,0,0.11,0,0.22-0.02l0.13,0.75
		c-0.14,0.05-0.31,0.09-0.57,0.09C196.98,32.92,196.67,32.45,196.67,31.61z"/>
	<path d="M203.05,32.17h-0.03l-0.09,0.6h-0.79v-8.54h0.99v2.34l-0.03,1.05c0.53-0.46,1.18-0.81,1.83-0.81
		c1.51,0,2.32,1.17,2.32,2.97c0,1.99-1.19,3.15-2.53,3.15C204.17,32.92,203.56,32.64,203.05,32.17z M206.22,29.78
		c0-1.29-0.44-2.15-1.54-2.15c-0.49,0-1.01,0.27-1.56,0.8v3.06c0.51,0.44,1.04,0.61,1.42,0.61
		C205.5,32.09,206.22,31.22,206.22,29.78z"/>
	<path d="M208.34,29.87c0-1.9,1.28-3.07,2.62-3.07c1.49,0,2.33,1.07,2.33,2.74c0,0.21-0.02,0.42-0.05,0.56h-3.93
		c0.07,1.23,0.83,2.04,1.94,2.04c0.56,0,1.02-0.18,1.45-0.47l0.35,0.65c-0.51,0.33-1.13,0.6-1.92,0.6
		C209.57,32.92,208.34,31.78,208.34,29.87z M212.41,29.39c0-1.17-0.53-1.8-1.44-1.8c-0.82,0-1.55,0.66-1.67,1.8H212.41z"/>
	<path d="M214.29,29.87c0-1.9,1.28-3.07,2.62-3.07c1.49,0,2.33,1.07,2.33,2.74c0,0.21-0.02,0.42-0.05,0.56h-3.93
		c0.07,1.23,0.83,2.04,1.94,2.04c0.56,0,1.02-0.18,1.45-0.47l0.35,0.65c-0.51,0.33-1.13,0.6-1.92,0.6
		C215.53,32.92,214.29,31.78,214.29,29.87z M218.36,29.39c0-1.17-0.53-1.8-1.44-1.8c-0.82,0-1.55,0.66-1.67,1.8H218.36z"/>
	<path d="M220.73,30.97v-3.22h-0.87V27l0.91-0.06l0.12-1.63h0.82v1.63h1.58v0.8h-1.58v3.24c0,0.71,0.23,1.13,0.9,1.13
		c0.21,0,0.47-0.08,0.66-0.16l0.19,0.74c-0.33,0.11-0.72,0.22-1.08,0.22C221.15,32.92,220.73,32.13,220.73,30.97z"/>
	<path d="M223.15,35.23l0.19-0.75c0.15,0.05,0.35,0.1,0.55,0.1c0.58,0,0.72-0.44,0.72-1.15v-6.48h0.99v6.49
		c0,1.19-0.44,1.95-1.6,1.95C223.65,35.38,223.35,35.31,223.15,35.23z M224.44,25.11c0-0.39,0.3-0.64,0.68-0.64s0.68,0.25,0.68,0.64
		c0,0.37-0.3,0.64-0.68,0.64S224.44,25.48,224.44,25.11z"/>
	<path d="M227.14,29.87c0-1.9,1.28-3.07,2.62-3.07c1.49,0,2.33,1.07,2.33,2.74c0,0.21-0.02,0.42-0.05,0.56h-3.93
		c0.07,1.23,0.83,2.04,1.94,2.04c0.56,0,1.02-0.18,1.45-0.47l0.35,0.65c-0.51,0.33-1.13,0.6-1.92,0.6
		C228.38,32.92,227.14,31.78,227.14,29.87z M231.22,29.39c0-1.17-0.53-1.8-1.44-1.8c-0.82,0-1.55,0.66-1.67,1.8H231.22z"/>
	<path d="M236.84,32.17h-0.03l-0.09,0.6h-0.79v-8.54h0.99v2.34l-0.03,1.05c0.53-0.46,1.18-0.81,1.83-0.81
		c1.51,0,2.32,1.17,2.32,2.97c0,1.99-1.19,3.15-2.53,3.15C237.96,32.92,237.36,32.64,236.84,32.17z M240.01,29.78
		c0-1.29-0.44-2.15-1.54-2.15c-0.49,0-1.01,0.27-1.56,0.8v3.06c0.51,0.44,1.04,0.61,1.42,0.61
		C239.3,32.09,240.01,31.22,240.01,29.78z"/>
	<path d="M242.38,25.11c0-0.39,0.3-0.64,0.68-0.64s0.68,0.25,0.68,0.64c0,0.37-0.3,0.64-0.68,0.64S242.38,25.48,242.38,25.11z
		 M242.56,26.95h0.99v5.83h-0.99V26.95z"/>
	<path d="M244.06,35.23l0.19-0.75c0.15,0.05,0.35,0.1,0.55,0.1c0.58,0,0.72-0.44,0.72-1.15v-6.48h0.99v6.49
		c0,1.19-0.44,1.95-1.6,1.95C244.56,35.38,244.26,35.31,244.06,35.23z M245.34,25.11c0-0.39,0.3-0.64,0.68-0.64s0.68,0.25,0.68,0.64
		c0,0.37-0.3,0.64-0.68,0.64S245.34,25.48,245.34,25.11z"/>
	<path d="M251.79,32.17h-0.03l-0.09,0.6h-0.79v-8.54h0.99v2.34l-0.03,1.05c0.53-0.46,1.18-0.81,1.83-0.81
		c1.51,0,2.32,1.17,2.32,2.97c0,1.99-1.19,3.15-2.53,3.15C252.91,32.92,252.31,32.64,251.79,32.17z M254.96,29.78
		c0-1.29-0.44-2.15-1.54-2.15c-0.49,0-1.01,0.27-1.56,0.8v3.06c0.51,0.44,1.04,0.61,1.42,0.61
		C254.25,32.09,254.96,31.22,254.96,29.78z"/>
	<path d="M257.08,29.87c0-1.9,1.28-3.07,2.62-3.07c1.49,0,2.33,1.07,2.33,2.74c0,0.21-0.02,0.42-0.05,0.56h-3.93
		c0.07,1.23,0.83,2.04,1.94,2.04c0.56,0,1.02-0.18,1.45-0.47l0.35,0.65c-0.51,0.33-1.13,0.6-1.92,0.6
		C258.32,32.92,257.08,31.78,257.08,29.87z M261.16,29.39c0-1.17-0.53-1.8-1.44-1.8c-0.82,0-1.55,0.66-1.67,1.8H261.16z"/>
	<path d="M263.03,29.87c0-1.9,1.28-3.07,2.62-3.07c1.49,0,2.33,1.07,2.33,2.74c0,0.21-0.02,0.42-0.05,0.56h-3.93
		c0.07,1.23,0.83,2.04,1.94,2.04c0.56,0,1.02-0.18,1.45-0.47l0.35,0.65c-0.51,0.33-1.13,0.6-1.92,0.6
		C264.27,32.92,263.03,31.78,263.03,29.87z M267.11,29.39c0-1.17-0.53-1.8-1.44-1.8c-0.82,0-1.55,0.66-1.67,1.8H267.11z"/>
	<path d="M269.47,30.97v-3.22h-0.87V27l0.91-0.06l0.12-1.63h0.82v1.63h1.58v0.8h-1.58v3.24c0,0.71,0.23,1.13,0.9,1.13
		c0.21,0,0.47-0.08,0.66-0.16l0.19,0.74c-0.33,0.11-0.72,0.22-1.08,0.22C269.89,32.92,269.47,32.13,269.47,30.97z"/>
	<path d="M271.9,35.23l0.19-0.75c0.15,0.05,0.35,0.1,0.55,0.1c0.58,0,0.72-0.44,0.72-1.15v-6.48h0.99v6.49
		c0,1.19-0.44,1.95-1.6,1.95C272.4,35.38,272.1,35.31,271.9,35.23z M273.18,25.11c0-0.39,0.3-0.64,0.68-0.64s0.68,0.25,0.68,0.64
		c0,0.37-0.3,0.64-0.68,0.64S273.18,25.48,273.18,25.11z"/>
	<path d="M275.88,29.87c0-1.9,1.28-3.07,2.62-3.07c1.49,0,2.33,1.07,2.33,2.74c0,0.21-0.02,0.42-0.05,0.56h-3.93
		c0.07,1.23,0.83,2.04,1.94,2.04c0.56,0,1.02-0.18,1.45-0.47l0.35,0.65c-0.51,0.33-1.13,0.6-1.92,0.6
		C277.12,32.92,275.88,31.78,275.88,29.87z M279.96,29.39c0-1.17-0.53-1.8-1.44-1.8c-0.82,0-1.55,0.66-1.67,1.8H279.96z"/>
	<path d="M283.83,26.95h1.02l1.1,3.31c0.17,0.57,0.36,1.16,0.54,1.72h0.05c0.17-0.56,0.36-1.15,0.54-1.72l1.1-3.31h0.97l-2.06,5.83
		h-1.15L283.83,26.95z"/>
	<path d="M289.79,29.87c0-1.95,1.27-3.07,2.7-3.07s2.7,1.12,2.7,3.07c0,1.93-1.27,3.05-2.7,3.05S289.79,31.8,289.79,29.87z
		 M294.18,29.87c0-1.34-0.68-2.25-1.68-2.25s-1.68,0.91-1.68,2.25s0.68,2.23,1.68,2.23S294.18,31.21,294.18,29.87z"/>
	<path d="M296.3,29.87c0-1.95,1.27-3.07,2.7-3.07s2.7,1.12,2.7,3.07c0,1.93-1.27,3.05-2.7,3.05S296.3,31.8,296.3,29.87z
		 M300.68,29.87c0-1.34-0.68-2.25-1.68-2.25s-1.68,0.91-1.68,2.25S298,32.1,299,32.1S300.68,31.21,300.68,29.87z"/>
	<path d="M303.23,26.95h0.82l0.08,1.06h0.03c0.41-0.74,1-1.21,1.66-1.21c0.26,0,0.44,0.03,0.62,0.12l-0.18,0.87
		c-0.2-0.06-0.33-0.1-0.57-0.1c-0.49,0-1.08,0.35-1.48,1.34v3.74h-0.99V26.95z"/>
	<path d="M309.19,32.25l3.07-4.5h-2.73v-0.8h3.98v0.53l-3.07,4.5h3.17v0.8h-4.42V32.25z"/>
	<path d="M314.34,29.87c0-1.95,1.27-3.07,2.7-3.07s2.7,1.12,2.7,3.07c0,1.93-1.27,3.05-2.7,3.05S314.34,31.8,314.34,29.87z
		 M318.73,29.87c0-1.34-0.68-2.25-1.68-2.25s-1.68,0.91-1.68,2.25s0.68,2.23,1.68,2.23S318.73,31.21,318.73,29.87z"/>
	<path d="M321.28,26.95h0.82l0.08,1.06h0.03c0.41-0.74,1-1.21,1.66-1.21c0.26,0,0.44,0.03,0.62,0.12l-0.18,0.87
		c-0.2-0.06-0.33-0.1-0.57-0.1c-0.49,0-1.08,0.35-1.48,1.34v3.74h-0.99V26.95z"/>
	<path d="M324.88,33.9c0-0.5,0.32-0.97,0.85-1.32v-0.05c-0.3-0.19-0.52-0.5-0.52-0.96c0-0.48,0.34-0.87,0.64-1.08v-0.05
		c-0.39-0.3-0.75-0.87-0.75-1.57c0-1.28,1-2.08,2.19-2.08c0.32,0,0.61,0.06,0.82,0.14h2.03v0.76h-1.2c0.28,0.27,0.48,0.7,0.48,1.2
		c0,1.25-0.94,2.02-2.13,2.02c-0.28,0-0.61-0.07-0.87-0.2c-0.21,0.18-0.37,0.37-0.37,0.69c0,0.37,0.24,0.63,1.02,0.63h1.13
		c1.35,0,2.04,0.43,2.04,1.39c0,1.08-1.15,2.02-2.95,2.02C325.87,35.46,324.88,34.9,324.88,33.9z M329.28,33.59
		c0-0.54-0.41-0.72-1.17-0.72h-1.01c-0.22,0-0.5-0.02-0.76-0.09c-0.42,0.3-0.59,0.64-0.59,0.98c0,0.63,0.63,1.02,1.69,1.02
		C328.55,34.78,329.28,34.2,329.28,33.59z M328.53,28.88c0-0.85-0.55-1.36-1.24-1.36c-0.69,0-1.24,0.51-1.24,1.36
		c0,0.85,0.57,1.39,1.24,1.39S328.53,29.73,328.53,28.88z"/>
	<path d="M330.77,29.87c0-1.9,1.28-3.07,2.62-3.07c1.49,0,2.33,1.07,2.33,2.74c0,0.21-0.02,0.42-0.05,0.56h-3.93
		c0.07,1.23,0.83,2.04,1.94,2.04c0.56,0,1.02-0.18,1.45-0.47l0.35,0.65c-0.51,0.33-1.13,0.6-1.92,0.6
		C332.01,32.92,330.77,31.78,330.77,29.87z M334.85,29.39c0-1.17-0.53-1.8-1.44-1.8c-0.82,0-1.55,0.66-1.67,1.8H334.85z"/>
	<path d="M337.16,26.95h0.82l0.08,0.84h0.03c0.56-0.55,1.16-0.98,1.96-0.98c1.23,0,1.78,0.79,1.78,2.28v3.69h-0.99v-3.57
		c0-1.09-0.33-1.55-1.1-1.55c-0.6,0-1.01,0.3-1.59,0.9v4.22h-0.99V26.95z"/>
	<path d="M48.31,44.27c0-1.89,1.19-3.07,2.52-3.07c0.68,0,1.12,0.25,1.63,0.68l-0.04-1v-2.25h0.99v8.54H52.6l-0.08-0.69h-0.03
		c-0.45,0.45-1.07,0.83-1.77,0.83C49.26,47.32,48.31,46.21,48.31,44.27z M52.43,45.69v-3.06c-0.5-0.44-0.95-0.61-1.42-0.61
		c-0.93,0-1.67,0.9-1.67,2.23c0,1.4,0.58,2.23,1.6,2.23C51.47,46.49,51.94,46.23,52.43,45.69z"/>
	<path d="M55.03,45.66c0-1.27,1.1-1.9,3.58-2.18c0-0.75-0.25-1.47-1.2-1.47c-0.67,0-1.28,0.32-1.74,0.62l-0.39-0.68
		c0.54-0.35,1.35-0.76,2.29-0.76c1.42,0,2.02,0.95,2.02,2.4v3.58h-0.81l-0.08-0.7h-0.03c-0.56,0.46-1.2,0.84-1.93,0.84
		C55.76,47.32,55.03,46.71,55.03,45.66z M58.61,45.75v-1.62c-1.95,0.23-2.61,0.71-2.61,1.46c0,0.66,0.45,0.93,1.02,0.93
		C57.58,46.53,58.04,46.25,58.61,45.75z"/>
	<path d="M61.44,45.37v-3.22h-0.87V41.4l0.91-0.06l0.12-1.63h0.82v1.63h1.58v0.8h-1.58v3.24c0,0.71,0.23,1.13,0.9,1.13
		c0.21,0,0.48-0.08,0.66-0.16l0.19,0.74c-0.33,0.11-0.72,0.22-1.08,0.22C61.86,47.32,61.44,46.53,61.44,45.37z"/>
	<path d="M67.03,41.35h1.01l0.87,3.37c0.13,0.55,0.23,1.08,0.35,1.63h0.05c0.13-0.55,0.25-1.08,0.4-1.63l0.9-3.37h0.96l0.91,3.37
		c0.14,0.55,0.27,1.08,0.41,1.63h0.05c0.13-0.55,0.23-1.07,0.36-1.63l0.85-3.37h0.94l-1.56,5.83h-1.2l-0.84-3.13
		c-0.14-0.55-0.25-1.09-0.39-1.68h-0.05c-0.13,0.59-0.24,1.14-0.4,1.69l-0.82,3.12h-1.15L67.03,41.35z"/>
	<path d="M75.86,44.27c0-1.9,1.28-3.07,2.62-3.07c1.49,0,2.33,1.07,2.33,2.74c0,0.21-0.02,0.42-0.05,0.56h-3.93
		c0.07,1.23,0.83,2.04,1.94,2.04c0.56,0,1.02-0.18,1.45-0.47l0.35,0.65c-0.51,0.33-1.13,0.6-1.92,0.6
		C77.1,47.32,75.86,46.18,75.86,44.27z M79.93,43.79c0-1.17-0.53-1.8-1.44-1.8c-0.82,0-1.55,0.66-1.67,1.8H79.93z"/>
	<path d="M84.46,39.51c0-0.39,0.3-0.64,0.68-0.64c0.38,0,0.68,0.25,0.68,0.64c0,0.37-0.3,0.64-0.68,0.64
		C84.76,40.15,84.46,39.88,84.46,39.51z M84.64,41.35h0.99v5.83h-0.99V41.35z"/>
	<path d="M87.6,41.35h0.81l0.08,0.84h0.03c0.56-0.55,1.16-0.98,1.96-0.98c1.23,0,1.78,0.79,1.78,2.28v3.69h-0.99v-3.57
		c0-1.09-0.33-1.55-1.1-1.55c-0.6,0-1.01,0.3-1.59,0.9v4.22H87.6V41.35z"/>
	<path d="M96.25,40.96c0-0.96,0.45-1.65,1.28-2.13l0.28,0.46c-0.6,0.4-0.91,0.82-0.91,1.5l0.14,0.79l-0.5-0.61
		c0.15-0.14,0.27-0.21,0.46-0.21c0.33,0,0.64,0.22,0.64,0.6c0,0.41-0.27,0.66-0.64,0.66C96.53,42.04,96.25,41.66,96.25,40.96z
		 M98.37,40.96c0-0.96,0.45-1.65,1.28-2.13l0.28,0.46c-0.6,0.4-0.91,0.82-0.91,1.5l0.14,0.79l-0.5-0.61
		c0.15-0.14,0.27-0.21,0.46-0.21c0.33,0,0.64,0.22,0.64,0.6c0,0.41-0.27,0.66-0.64,0.66C98.65,42.04,98.37,41.66,98.37,40.96z"/>
	<path d="M101.84,45.37v-3.22h-0.87V41.4l0.91-0.06l0.12-1.63h0.82v1.63h1.58v0.8h-1.58v3.24c0,0.71,0.23,1.13,0.9,1.13
		c0.21,0,0.48-0.08,0.66-0.16l0.19,0.74c-0.33,0.11-0.72,0.22-1.08,0.22C102.26,47.32,101.84,46.53,101.84,45.37z"/>
	<path d="M105.73,38.63h0.99v2.34l-0.04,1.2c0.54-0.53,1.13-0.96,1.94-0.96c1.23,0,1.78,0.79,1.78,2.28v3.69h-0.99v-3.57
		c0-1.09-0.33-1.55-1.1-1.55c-0.6,0-1.01,0.3-1.59,0.9v4.22h-0.99V38.63z"/>
	<path d="M111.82,44.27c0-1.9,1.28-3.07,2.62-3.07c1.49,0,2.33,1.07,2.33,2.74c0,0.21-0.02,0.42-0.05,0.56h-3.93
		c0.07,1.23,0.83,2.04,1.94,2.04c0.56,0,1.02-0.18,1.45-0.47l0.35,0.65c-0.51,0.33-1.13,0.6-1.92,0.6
		C113.06,47.32,111.82,46.18,111.82,44.27z M115.9,43.79c0-1.17-0.53-1.8-1.44-1.8c-0.82,0-1.55,0.66-1.67,1.8H115.9z"/>
	<path d="M119.96,46.51l0.49-0.65c0.51,0.41,1.02,0.69,1.72,0.69c0.77,0,1.15-0.41,1.15-0.91c0-0.6-0.69-0.87-1.33-1.1
		c-0.82-0.3-1.74-0.7-1.74-1.68c0-0.93,0.75-1.65,2.01-1.65c0.73,0,1.36,0.3,1.81,0.65l-0.47,0.63c-0.4-0.3-0.81-0.52-1.33-0.52
		c-0.73,0-1.07,0.39-1.07,0.84c0,0.55,0.63,0.77,1.29,1.01c0.84,0.32,1.78,0.66,1.78,1.77c0,0.95-0.75,1.73-2.13,1.73
		C121.31,47.32,120.51,46.97,119.96,46.51z"/>
	<path d="M125.27,45.66c0-1.27,1.1-1.9,3.58-2.18c0-0.75-0.25-1.47-1.2-1.47c-0.67,0-1.28,0.32-1.74,0.62l-0.39-0.68
		c0.54-0.35,1.35-0.76,2.29-0.76c1.42,0,2.02,0.95,2.02,2.4v3.58h-0.81l-0.08-0.7h-0.03c-0.56,0.46-1.2,0.84-1.93,0.84
		C126.01,47.32,125.27,46.71,125.27,45.66z M128.85,45.75v-1.62c-1.95,0.23-2.61,0.71-2.61,1.46c0,0.66,0.45,0.93,1.02,0.93
		C127.82,46.53,128.29,46.25,128.85,45.75z"/>
	<path d="M131.05,41.4l0.84-0.06h2.18v0.8h-3.01V41.4z M131.85,40.43c0-1.18,0.54-1.94,1.71-1.94c0.35,0,0.7,0.09,0.97,0.2
		l-0.21,0.75c-0.22-0.1-0.45-0.15-0.66-0.15c-0.55,0-0.82,0.38-0.82,1.14v6.75h-0.99V40.43z"/>
	<path d="M134.63,44.27c0-1.9,1.28-3.07,2.62-3.07c1.49,0,2.33,1.07,2.33,2.74c0,0.21-0.02,0.42-0.05,0.56h-3.93
		c0.07,1.23,0.83,2.04,1.94,2.04c0.56,0,1.02-0.18,1.45-0.47l0.35,0.65c-0.51,0.33-1.13,0.6-1.92,0.6
		C135.87,47.32,134.63,46.18,134.63,44.27z M138.71,43.79c0-1.17-0.53-1.8-1.44-1.8c-0.82,0-1.55,0.66-1.67,1.8H138.71z"/>
	<path d="M143.06,45.66c0-1.27,1.1-1.9,3.58-2.18c0-0.75-0.25-1.47-1.2-1.47c-0.67,0-1.28,0.32-1.74,0.62l-0.39-0.68
		c0.54-0.35,1.35-0.76,2.29-0.76c1.42,0,2.02,0.95,2.02,2.4v3.58h-0.81l-0.08-0.7h-0.03c-0.56,0.46-1.2,0.84-1.93,0.84
		C143.79,47.32,143.06,46.71,143.06,45.66z M146.64,45.75v-1.62c-1.95,0.23-2.61,0.71-2.61,1.46c0,0.66,0.45,0.93,1.02,0.93
		C145.61,46.53,146.07,46.25,146.64,45.75z"/>
	<path d="M149.47,41.35h0.81l0.08,0.84h0.03c0.56-0.55,1.16-0.98,1.96-0.98c1.23,0,1.78,0.79,1.78,2.28v3.69h-0.99v-3.57
		c0-1.09-0.33-1.55-1.1-1.55c-0.6,0-1.01,0.3-1.59,0.9v4.22h-0.99V41.35z"/>
	<path d="M155.61,44.27c0-1.89,1.19-3.07,2.52-3.07c0.68,0,1.12,0.25,1.63,0.68l-0.04-1v-2.25h0.99v8.54h-0.81l-0.08-0.69h-0.03
		c-0.45,0.45-1.07,0.83-1.77,0.83C156.56,47.32,155.61,46.21,155.61,44.27z M159.73,45.69v-3.06c-0.5-0.44-0.95-0.61-1.42-0.61
		c-0.93,0-1.67,0.9-1.67,2.23c0,1.4,0.58,2.23,1.6,2.23C158.77,46.49,159.24,46.23,159.73,45.69z"/>
	<path d="M163.63,49.63l0.19-0.75c0.15,0.05,0.35,0.1,0.55,0.1c0.58,0,0.72-0.44,0.72-1.15v-6.48h0.99v6.49
		c0,1.19-0.44,1.95-1.6,1.95C164.13,49.78,163.83,49.71,163.63,49.63z M164.92,39.51c0-0.39,0.3-0.64,0.68-0.64
		c0.38,0,0.68,0.25,0.68,0.64c0,0.37-0.3,0.64-0.68,0.64C165.22,40.15,164.92,39.88,164.92,39.51z"/>
	<path d="M167.97,45.04v-3.69h0.99v3.57c0,1.09,0.33,1.55,1.1,1.55c0.6,0,1.01-0.3,1.56-0.98v-4.13h0.99v5.83h-0.81l-0.08-0.91
		h-0.03c-0.54,0.64-1.12,1.06-1.92,1.06C168.53,47.32,167.97,46.53,167.97,45.04z"/>
	<path d="M173.93,46.51l0.49-0.65c0.51,0.41,1.02,0.69,1.72,0.69c0.77,0,1.15-0.41,1.15-0.91c0-0.6-0.69-0.87-1.33-1.1
		c-0.82-0.3-1.74-0.7-1.74-1.68c0-0.93,0.75-1.65,2.01-1.65c0.73,0,1.36,0.3,1.81,0.65l-0.47,0.63c-0.4-0.3-0.81-0.52-1.33-0.52
		c-0.73,0-1.07,0.39-1.07,0.84c0,0.55,0.63,0.77,1.29,1.01c0.84,0.32,1.78,0.66,1.78,1.77c0,0.95-0.75,1.73-2.13,1.73
		C175.28,47.32,174.48,46.97,173.93,46.51z"/>
	<path d="M179.54,45.37v-3.22h-0.87V41.4l0.91-0.06l0.12-1.63h0.82v1.63h1.58v0.8h-1.58v3.24c0,0.71,0.23,1.13,0.9,1.13
		c0.21,0,0.47-0.08,0.66-0.16l0.19,0.74c-0.33,0.11-0.72,0.22-1.08,0.22C179.96,47.32,179.54,46.53,179.54,45.37z"/>
	<path d="M185.18,46.51l0.49-0.65c0.51,0.41,1.02,0.69,1.72,0.69c0.77,0,1.15-0.41,1.15-0.91c0-0.6-0.69-0.87-1.33-1.1
		c-0.82-0.3-1.74-0.7-1.74-1.68c0-0.93,0.75-1.65,2.01-1.65c0.73,0,1.36,0.3,1.81,0.65l-0.47,0.63c-0.4-0.3-0.81-0.52-1.33-0.52
		c-0.73,0-1.07,0.39-1.07,0.84c0,0.55,0.63,0.77,1.29,1.01c0.84,0.32,1.78,0.66,1.78,1.77c0,0.95-0.75,1.73-2.13,1.73
		C186.53,47.32,185.73,46.97,185.18,46.51z"/>
	<path d="M190.85,41.35h0.82l0.08,0.67h0.03c0.53-0.44,1.18-0.82,1.86-0.82c1.51,0,2.31,1.17,2.31,2.97c0,1.99-1.19,3.15-2.53,3.15
		c-0.53,0-1.08-0.25-1.62-0.68l0.03,1.02v1.97h-0.99V41.35z M194.94,44.18c0-1.29-0.44-2.15-1.54-2.15c-0.49,0-0.99,0.27-1.56,0.8
		v3.06c0.53,0.44,1.04,0.61,1.42,0.61C194.23,46.49,194.94,45.62,194.94,44.18z"/>
	<path d="M196.99,45.66c0-1.27,1.1-1.9,3.58-2.18c0-0.75-0.25-1.47-1.2-1.47c-0.67,0-1.28,0.32-1.74,0.62l-0.39-0.68
		c0.54-0.35,1.35-0.76,2.29-0.76c1.42,0,2.02,0.95,2.02,2.4v3.58h-0.81l-0.08-0.7h-0.03c-0.56,0.46-1.21,0.84-1.93,0.84
		C197.72,47.32,196.99,46.71,196.99,45.66z M200.57,45.75v-1.62c-1.95,0.23-2.61,0.71-2.61,1.46c0,0.66,0.45,0.93,1.02,0.93
		C199.54,46.53,200,46.25,200.57,45.75z"/>
	<path d="M202.96,44.27c0-1.95,1.31-3.07,2.8-3.07c0.76,0,1.29,0.32,1.71,0.68l-0.5,0.65c-0.34-0.31-0.7-0.52-1.16-0.52
		c-1.06,0-1.83,0.91-1.83,2.25s0.73,2.23,1.8,2.23c0.53,0,1-0.26,1.37-0.58l0.43,0.66c-0.52,0.47-1.19,0.74-1.88,0.74
		C204.14,47.32,202.96,46.2,202.96,44.27z"/>
	<path d="M208.18,44.27c0-1.9,1.28-3.07,2.62-3.07c1.49,0,2.33,1.07,2.33,2.74c0,0.21-0.02,0.42-0.05,0.56h-3.93
		c0.07,1.23,0.83,2.04,1.94,2.04c0.56,0,1.02-0.18,1.45-0.47l0.35,0.65c-0.51,0.33-1.13,0.6-1.92,0.6
		C209.42,47.32,208.18,46.18,208.18,44.27z M212.26,43.79c0-1.17-0.53-1.8-1.44-1.8c-0.82,0-1.55,0.66-1.67,1.8H212.26z"/>
	<path d="M216.34,41.4l0.84-0.06h2.18v0.8h-3.01V41.4z M217.13,40.43c0-1.18,0.54-1.94,1.71-1.94c0.35,0,0.7,0.09,0.97,0.2
		l-0.21,0.75c-0.22-0.1-0.45-0.15-0.66-0.15c-0.55,0-0.82,0.38-0.82,1.14v6.75h-0.99V40.43z"/>
	<path d="M219.92,44.27c0-1.95,1.27-3.07,2.7-3.07s2.7,1.12,2.7,3.07c0,1.93-1.27,3.05-2.7,3.05S219.92,46.2,219.92,44.27z
		 M224.3,44.27c0-1.34-0.68-2.25-1.68-2.25s-1.68,0.91-1.68,2.25s0.68,2.23,1.68,2.23S224.3,45.61,224.3,44.27z"/>
	<path d="M226.85,41.35h0.82l0.08,1.06h0.03c0.41-0.74,1-1.21,1.66-1.21c0.26,0,0.44,0.03,0.62,0.12l-0.18,0.87
		c-0.2-0.06-0.33-0.1-0.57-0.1c-0.49,0-1.08,0.35-1.48,1.34v3.74h-0.99V41.35z"/>
	<path d="M233.42,38.63h0.99v2.34l-0.04,1.2c0.54-0.53,1.14-0.96,1.94-0.96c1.23,0,1.78,0.79,1.78,2.28v3.69h-0.99v-3.57
		c0-1.09-0.33-1.55-1.1-1.55c-0.6,0-1.01,0.3-1.59,0.9v4.22h-0.99V38.63z"/>
	<path d="M239.87,45.04v-3.69h0.99v3.57c0,1.09,0.33,1.55,1.1,1.55c0.6,0,1.01-0.3,1.56-0.98v-4.13h0.99v5.83h-0.81l-0.08-0.91
		h-0.03c-0.54,0.64-1.12,1.06-1.92,1.06C240.42,47.32,239.87,46.53,239.87,45.04z"/>
	<path d="M246.48,41.35h0.82l0.08,0.85h0.03c0.51-0.55,1.12-0.99,1.81-0.99c0.89,0,1.37,0.43,1.61,1.11
		c0.61-0.66,1.21-1.11,1.92-1.11c1.2,0,1.77,0.79,1.77,2.28v3.69h-0.99v-3.57c0-1.09-0.34-1.55-1.08-1.55c-0.45,0-0.92,0.3-1.46,0.9
		v4.22h-0.99v-3.57c0-1.09-0.34-1.55-1.08-1.55c-0.44,0-0.92,0.3-1.46,0.9v4.22h-0.99V41.35z"/>
	<path d="M256.06,45.66c0-1.27,1.1-1.9,3.58-2.18c0-0.75-0.25-1.47-1.2-1.47c-0.67,0-1.28,0.32-1.74,0.62l-0.39-0.68
		c0.54-0.35,1.35-0.76,2.29-0.76c1.42,0,2.02,0.95,2.02,2.4v3.58h-0.81l-0.08-0.7h-0.03c-0.56,0.46-1.21,0.84-1.93,0.84
		C256.79,47.32,256.06,46.71,256.06,45.66z M259.64,45.75v-1.62c-1.95,0.23-2.61,0.71-2.61,1.46c0,0.66,0.45,0.93,1.02,0.93
		C258.61,46.53,259.08,46.25,259.64,45.75z"/>
	<path d="M262.47,41.35h0.82l0.08,0.84h0.03c0.56-0.55,1.16-0.98,1.96-0.98c1.23,0,1.78,0.79,1.78,2.28v3.69h-0.99v-3.57
		c0-1.09-0.33-1.55-1.1-1.55c-0.6,0-1.01,0.3-1.59,0.9v4.22h-0.99V41.35z"/>
	<path d="M268.86,39.51c0-0.39,0.3-0.64,0.68-0.64s0.68,0.25,0.68,0.64c0,0.37-0.3,0.64-0.68,0.64S268.86,39.88,268.86,39.51z
		 M269.04,41.35h0.99v5.83h-0.99V41.35z"/>
	<path d="M272.16,45.37v-3.22h-0.87V41.4l0.91-0.06l0.12-1.63h0.82v1.63h1.58v0.8h-1.58v3.24c0,0.71,0.23,1.13,0.9,1.13
		c0.21,0,0.47-0.08,0.66-0.16l0.19,0.74c-0.33,0.11-0.72,0.22-1.08,0.22C272.58,47.32,272.16,46.53,272.16,45.37z"/>
	<path d="M275.46,49.57l0.19-0.79c0.12,0.04,0.29,0.09,0.44,0.09c0.66,0,1.07-0.53,1.31-1.25l0.13-0.43l-2.34-5.84h1.02l1.19,3.23
		c0.18,0.51,0.38,1.1,0.57,1.64h0.05c0.17-0.53,0.33-1.13,0.49-1.64l1.04-3.23h0.97l-2.2,6.31c-0.41,1.16-1.01,2.03-2.18,2.03
		C275.87,49.69,275.65,49.64,275.46,49.57z"/>
	<path d="M281.42,41.55c0.6-0.4,0.91-0.82,0.91-1.5l-0.14-0.79l0.5,0.61c-0.15,0.14-0.27,0.21-0.46,0.21c-0.33,0-0.64-0.22-0.64-0.6
		c0-0.41,0.26-0.66,0.64-0.66c0.48,0,0.76,0.39,0.76,1.08c0,0.96-0.45,1.65-1.28,2.13L281.42,41.55z M283.53,41.55
		c0.6-0.4,0.91-0.82,0.91-1.5l-0.14-0.79l0.5,0.61c-0.15,0.14-0.27,0.21-0.46,0.21c-0.33,0-0.64-0.22-0.64-0.6
		c0-0.41,0.27-0.66,0.64-0.66c0.48,0,0.76,0.39,0.76,1.08c0,0.96-0.45,1.65-1.28,2.13L283.53,41.55z"/>
	<path d="M288.55,46.65l3.07-4.5h-2.73v-0.8h3.98v0.53l-3.07,4.5h3.17v0.8h-4.42V46.65z"/>
	<path d="M294.08,39.51c0-0.39,0.3-0.64,0.68-0.64s0.68,0.25,0.68,0.64c0,0.37-0.3,0.64-0.68,0.64S294.08,39.88,294.08,39.51z
		 M294.26,41.35h0.99v5.83h-0.99V41.35z"/>
	<path d="M297.38,45.37v-3.22h-0.87V41.4l0.91-0.06l0.12-1.63h0.82v1.63h1.58v0.8h-1.58v3.24c0,0.71,0.23,1.13,0.9,1.13
		c0.21,0,0.47-0.08,0.66-0.16l0.19,0.74c-0.33,0.11-0.72,0.22-1.08,0.22C297.81,47.32,297.38,46.53,297.38,45.37z"/>
	<path d="M301.2,45.37v-3.22h-0.87V41.4l0.91-0.06l0.12-1.63h0.82v1.63h1.58v0.8h-1.58v3.24c0,0.71,0.23,1.13,0.9,1.13
		c0.21,0,0.47-0.08,0.66-0.16l0.19,0.74c-0.33,0.11-0.72,0.22-1.08,0.22C301.62,47.32,301.2,46.53,301.2,45.37z"/>
	<path d="M304.48,44.27c0-1.9,1.28-3.07,2.62-3.07c1.49,0,2.33,1.07,2.33,2.74c0,0.21-0.02,0.42-0.05,0.56h-3.93
		c0.07,1.23,0.83,2.04,1.94,2.04c0.56,0,1.02-0.18,1.45-0.47l0.35,0.65c-0.51,0.33-1.13,0.6-1.92,0.6
		C305.72,47.32,304.48,46.18,304.48,44.27z M308.56,43.79c0-1.17-0.53-1.8-1.44-1.8c-0.82,0-1.55,0.66-1.67,1.8H308.56z"/>
	<path d="M310.87,41.35h0.82l0.08,0.84h0.03c0.56-0.55,1.16-0.98,1.96-0.98c1.23,0,1.78,0.79,1.78,2.28v3.69h-0.99v-3.57
		c0-1.09-0.33-1.55-1.1-1.55c-0.6,0-1.01,0.3-1.59,0.9v4.22h-0.99V41.35z"/>
	<path d="M317.23,46.57c0-0.45,0.32-0.76,0.71-0.76s0.71,0.31,0.71,0.76c0,0.44-0.32,0.75-0.71,0.75S317.23,47.01,317.23,46.57z"/>
</g>
<g>
</g>
<g>
</g>
<g>
</g>
<g>
</g>
<g>
</g>
<g>
</g>
<g>
</g>
<g>
</g>
<g>
</g>
<g>
</g>
<g>
</g>
<g>
</g>
<g>
</g>
<g>
</g>
</svg>
