<?xml version="1.0" encoding="utf-8"?>
<!-- Generator: Adobe Illustrator 28.0.0, SVG Export Plug-In . SVG Version: 6.00 Build 0)  -->
<svg version="1.1" xmlns="http://www.w3.org/2000/svg" xmlns:xlink="http://www.w3.org/1999/xlink" x="0px" y="0px"
	 viewBox="0 0 175 150" style="enable-background:new 0 0 175 150;" xml:space="preserve">
<style type="text/css">
	.st0{fill:#999999;}
	.st1{fill:#E0E0E0;}
	.st2{fill:#603813;}
	.st3{fill:#333333;}
	.st4{fill:#B3B3B3;}
	.st5{fill:#CCCCCC;}
	.st6{fill:#4D4D4D;}
	.st7{fill:#AA1C00;}
	.st8{fill:#8C6239;}
	.st9{fill:#ED1C24;}
	.st10{fill:#42210B;}
	.st11{fill:#754C24;}
	.st12{fill:#7F478B;}
	.st13{fill:#1A1A1A;}
	.st14{fill:#FFF6D4;}
	.st15{fill:#253500;}
	.st16{fill:#F7931E;}
	.st17{fill:#A67C52;}
	.st18{fill:#998675;}
	.st19{fill:#C7B299;}
	.st20{fill:#FFFFFF;}
	.st21{fill:#F2F2F2;}
	.st22{fill:#006837;}
	.st23{fill:#009245;}
	.st24{fill:#808080;}
</style>
<g id="Laag_1">
	<rect class="st0" width="169.27" height="96.71"/>
	<rect x="0.27" y="95.97" class="st1" width="169" height="54.03"/>
</g>
<g id="Laag_2">
	<g>
		<path class="st2" d="M23.78,96.37c0,0,130.31-0.4,132.13,0.03c1.82,0.43-65.33-59.56-74.72-58.42S53.74,67.13,53.74,67.13
			S34.56,79.67,23.78,96.37z"/>
		<path class="st3" d="M68.39,47.36c0,0,0-6.68,3.41-8.25c0,0-3.27-0.57-1.71-2.99l2.56,1.56c0,0-0.57-2.56,1.56-3.27v2.56
			c0,0,3.55-1,6.97,1l-2.84,5.83l-6.97,3.55H68.39z"/>
		<g>
			<path class="st4" d="M86.45,35.13v4.69c0,0-2.56,2.56-3.98,0v-4.69C82.47,35.13,84.46,33.43,86.45,35.13z"/>
			<path class="st5" d="M89.15,31.01c0,0,0.28,2.7-2.7,4.12C86.45,35.13,85.74,32,89.15,31.01z"/>
			<rect x="123.6" y="67.47" class="st6" width="3.98" height="3.36"/>
		</g>
		<g>
			<path class="st7" d="M78.23,53.29h5.58c0,0-0.85-7.1,4.4-9.13s-11.66,2.03-11.66,2.03L78.23,53.29z"/>
			<path class="st5" d="M86.01,52.44l-2.2,0.85c0,0-0.68-6.76,4.4-9.13C88.2,44.16,89.72,46.19,86.01,52.44z"/>
		</g>
		<polygon class="st8" points="69.53,50.92 73.93,52.76 79.48,46.08 74.5,41.67 72.8,42.38 		"/>
		<circle class="st9" cx="68" cy="50.05" r="2.45"/>
		<g>
			<path class="st2" d="M59.64,69.4c0.07-0.85,2.35-14.93,2.35-14.93s10.24-6.01,13.51-4.43l-3.55,17.51L59.64,69.4z"/>
			<path class="st10" d="M75.5,66.56l-3.55,1l3.55-17.51c0,0,0.71,2.29,1.99,1.3S75.5,66.56,75.5,66.56z"/>
		</g>
		<polygon class="st11" points="56.44,66.56 61.56,66.56 62.84,56.75 59.64,56.75 57.44,58.31 		"/>
		<path class="st3" d="M45.07,84.05c-0.14-0.71-2.7-13.08,6.83-15.22c0,0-3.69-2.28-3.62-2.7c0.07-0.43,0-3.84,0-3.84
			s3.05-1.28,5.47,4.83c0,0-2.56-2.84,0-6.4c0,0,1.85,2.13,1.42,5.83c0,0,11.94-2.7,7.96,7.68S45.07,84.05,45.07,84.05z"/>
		<g>
			<path class="st4" d="M31.42,96.56c0,0-9.81,2.99-3.7-4.83c0,0,13.65-11.38,21.05-10.81l6.26,1v2.42l1.42,6.11l-5.12,6.67
				C51.32,97.12,36.96,105.38,31.42,96.56z"/>
			<path class="st4" d="M35.83,78.79l-1.71,0.85c0,0-4.42-13.08,6.96-4.98l5.95,6.32l-2.67,2.03
				C44.36,83.02,34.12,70.97,35.83,78.79z"/>
		</g>
		<path class="st12" d="M86.85,40.61c0,0-19.1,15.38,9.81,21.13S99.7,33,86.85,40.61z"/>
		<g>
			<path class="st5" d="M84.16,53.15c-0.38,0.1-4.5,6.74-4.5,6.74s4.63,5.25,5,4.12c0.36-1.12,6.12-7.24,6.12-7.24
				S88.03,52.15,84.16,53.15z"/>
			<path class="st5" d="M79.66,59.89c0,0-1.12,4,5,4.12C84.66,64.01,87.03,60.76,79.66,59.89z"/>
			<path class="st5" d="M88.41,43.9c0,0-5.87,2.75-4.25,9.24C84.16,53.15,90.15,49.52,88.41,43.9z"/>
		</g>
		<g>
			<path d="M54.87,85.6c0,0-1.43,4.01,5.56,7.01c6.99,3,21.48-8.37,21.48-8.37s10.24-9.37,8.12-17.98l-4.58-2.93L54.87,85.6z"/>
			
				<ellipse transform="matrix(0.8083 -0.5888 0.5888 0.8083 -30.3928 55.5875)" class="st3" cx="70.16" cy="74.46" rx="18.92" ry="7.17"/>
			
				<ellipse transform="matrix(0.8083 -0.5888 0.5888 0.8083 -30.0469 55.4748)" class="st13" cx="70.16" cy="73.88" rx="9.79" ry="3.39"/>
		</g>
		<path class="st14" d="M111.53,56.67l1.52,16.57c0,0,13.69,1.69,13.69-10.48c0,0-0.17-6.59-3.38-8.45l1.35-3.21l-3.04,1.52
			L111.53,56.67z"/>
		<path class="st15" d="M95.3,74.25c0.24,0.81,22.82,0,22.82,0s3.89-27.72-11.41-27.39c0,0,3.47-1.52,1.94-5.07l-5.58,3.72
			c0,0,2.37-5.24-1.01-5.92c-3.38-0.68-0.85,4.9-0.68,6.25S87.53,48.55,95.3,74.25z"/>
		<g>
			<polygon class="st16" points="146.7,86.59 122.35,92.17 114.24,81.18 131.31,77.63 			"/>
			<path class="st16" d="M125.17,68.67L127,64.1c0,0,13.19-5.71,18.43-3.02s0,0,0,0l-1.01,7.59H125.17"/>
			<path class="st17" d="M122.94,74.59l2.23-5.92c0,0,12.86-6.41,16.39-4.05v13.01L122.94,74.59z"/>
			<path class="st18" d="M131.31,77.63l-17.07,3.55l2.28-6.42c0,0,13.35-5.97,18.09-2.14C139.34,76.45,131.31,77.63,131.31,77.63z"
				/>
			<path class="st19" d="M146.7,86.59c0,0-20.2-7.95-16.23-13.69c0,0,6.17-1.52,9.89,2.03l0.85-8.62c0,0,1.18-8.62,5.49-3.72V86.59z
				"/>
		</g>
		<path class="st6" d="M125.99,92.51c0,0-19.1,7.27-22.32,1.86c-3.21-5.41-6.59-10.14,0-18.43c0,0-3.33,0.17-3.78-3.38
			c0,0,2.77-0.34,4.46,1.52c1.69,1.86-0.85-1.52,2.2-3.89c3.04-2.37-1.35,5.07,1.35,4.56C110.6,74.25,123.79,72.73,125.99,92.51z"/>
		<g>
			<path class="st20" d="M126.38,83.02h5.86c0,0,3.72,1.16,3.21,6.51l4.73,3.49l-4.9,3.38c0,0-7.29-4.51-6.18-8.34
				C130.21,84.22,126.38,83.02,126.38,83.02l2.72,5.04"/>
			<circle class="st21" cx="126.38" cy="86.27" r="3.25"/>
			<circle class="st6" cx="126.38" cy="86.27" r="1.11"/>
		</g>
		<path class="st21" d="M97.08,89.63h9.81c0,0,3.21,0.34,3.55,6.25c0.34,5.92,2.87,5.24,2.87,5.24l-9.13,1.18
			c0,0,1.18-3.55-2.03-6.34C98.94,93.18,97.08,89.63,97.08,89.63z"/>
		<g>
			<path class="st22" d="M91.16,77.29c0,0,2.7-6.59,8.11-4.9C99.28,72.39,98.94,77.63,91.16,77.29z"/>
			<path class="st23" d="M94.37,84.9c0,0,6.42,0,7.44-4.9c0,0-1.52,0.17-2.03-3.72c-0.51-3.89,0.68-2.03-0.51-3.89
				c-1.18-1.86,1.01,4.9-8.11,4.9c0,0,3.21-0.85,3.21,3.38S94.37,84.9,94.37,84.9z"/>
		</g>
		<g>
			<path d="M72,98.38c0,0-1.43,4.01,5.56,7.01c6.99,3,21.48-8.37,21.48-8.37s10.24-9.37,8.12-17.98l-4.58-2.93L72,98.38z"/>
			
				<ellipse transform="matrix(0.8083 -0.5888 0.5888 0.8083 -34.6354 68.1207)" class="st24" cx="87.29" cy="87.25" rx="18.92" ry="7.17"/>
			
				<ellipse transform="matrix(0.8083 -0.5888 0.5888 0.8083 -34.2895 68.008)" class="st13" cx="87.29" cy="86.66" rx="9.79" ry="3.39"/>
		</g>
	</g>
	<g>
	</g>
	<g>
	</g>
	<g>
	</g>
	<g>
	</g>
	<g>
	</g>
	<g>
	</g>
	<g>
	</g>
	<g>
	</g>
	<g>
	</g>
	<g>
	</g>
	<g>
	</g>
</g>
</svg>
